<svg xmlns="http://www.w3.org/2000/svg" width="50" height="50" viewBox="0 0 50 50"><defs><style>.a{fill:#7f8685;}</style></defs><g transform="translate(5345.573 2041.304)"><path class="a" d="M45.156,48a2.835,2.835,0,0,1-2.011-.833L-1.167,2.854A2.844,2.844,0,0,1,2.854-1.167L47.167,43.146A2.844,2.844,0,0,1,45.156,48Z" transform="translate(-5343.573 -2039.304)"/><path class="a" d="M.844,48a2.844,2.844,0,0,1-2.011-4.854L43.146-1.167a2.844,2.844,0,1,1,4.021,4.022L2.854,47.167A2.835,2.835,0,0,1,.844,48Z" transform="translate(-5343.573 -2039.304)"/></g></svg>