<svg xmlns="http://www.w3.org/2000/svg" xmlns:xlink="http://www.w3.org/1999/xlink" width="50" height="60.716" viewBox="0 0 50 60.716"><defs><style>.a,.c{fill:#7f8685;}.a{stroke:#7f8685;stroke-width:1.5px;}.b{clip-path:url(#a);}</style><clipPath id="a"><rect class="a" width="50" height="60.716"/></clipPath></defs><g class="b"><path class="c" d="M12.13,51.075c0-2.65-.023-5.3.016-7.951a1.142,1.142,0,0,0-.775-1.251c-.884-.328-1.773-.649-2.674-.927-3.942-1.214-4.877-2.49-4.821-6.627.008-.595.007-1.19.02-1.785a4.609,4.609,0,0,0-.957-2.947c-.7-.93-1.391-1.863-2.031-2.832a4.639,4.639,0,0,1,.021-5.54c.633-.941,1.312-1.852,1.993-2.759A4.885,4.885,0,0,0,3.9,15.433c0-1.4,0-2.813.13-4.207A3.841,3.841,0,0,1,6.489,7.949,29.17,29.17,0,0,1,9.991,6.7a5.437,5.437,0,0,0,3.187-2.337A30.406,30.406,0,0,1,15,1.883,4.518,4.518,0,0,1,20.134.242c.959.277,1.913.578,2.849.925a5.554,5.554,0,0,0,3.955.033A36.487,36.487,0,0,1,30.5.135,3.865,3.865,0,0,1,34.43,1.294a21.574,21.574,0,0,1,2.248,2.862,5.841,5.841,0,0,0,3.563,2.606,24,24,0,0,1,2.98,1.03,4.425,4.425,0,0,1,2.884,4.3c.038,1.08.033,2.164.005,3.245a4.909,4.909,0,0,0,1.066,3.239c.612.79,1.2,1.6,1.771,2.421A4.859,4.859,0,0,1,48.9,27.09c-.549.77-1.1,1.541-1.681,2.285a5.189,5.189,0,0,0-1.12,3.387,38.186,38.186,0,0,1-.129,4.044,3.86,3.86,0,0,1-2.464,3.273A35.7,35.7,0,0,1,40.083,41.3c-2.193.7-2.2.69-2.2,2.95V58.69c0,.216,0,.433,0,.649-.037,1.25-.769,1.7-1.889,1.136q-5.166-2.622-10.312-5.283a1.275,1.275,0,0,0-1.335,0c-3.355,1.743-6.727,3.455-10.093,5.176-1.41.721-2.12.3-2.123-1.26q-.008-4.017,0-8.033m31.731-36.95c0-.6,0-1.19,0-1.785A2.519,2.519,0,0,0,42,9.7c-.87-.292-1.733-.613-2.62-.843a7.413,7.413,0,0,1-4.461-3.277,29.18,29.18,0,0,0-1.835-2.471,2.158,2.158,0,0,0-2.414-.727c-1.01.294-2.018.6-3.006.965a7.419,7.419,0,0,1-5.309,0c-.759-.282-1.528-.539-2.3-.778-1.82-.561-2.557-.322-3.7,1.212-.566.758-1.1,1.541-1.641,2.316a6.471,6.471,0,0,1-3.454,2.554Q9.6,9.171,7.95,9.734a2.456,2.456,0,0,0-1.787,2.516c0,.892-.034,1.787.012,2.677A7.469,7.469,0,0,1,4.419,20.26a28.354,28.354,0,0,0-1.663,2.3,2.413,2.413,0,0,0,0,2.888c.653.96,1.34,1.9,2.038,2.827a6.727,6.727,0,0,1,1.376,4.235c-.011,1.055,0,2.11-.012,3.164a2.537,2.537,0,0,0,1.854,2.643c.842.291,1.684.59,2.545.812a7.351,7.351,0,0,1,4.487,3.239c.5.77,1.058,1.5,1.6,2.241a2.522,2.522,0,0,0,3.014.96q1.47-.454,2.923-.963a7.046,7.046,0,0,1,4.766-.032c.945.324,1.888.656,2.846.937a2.545,2.545,0,0,0,3.322-1.083c.513-.662,1-1.344,1.457-2.048a7.384,7.384,0,0,1,4.479-3.251,28.158,28.158,0,0,0,2.915-.978,2.23,2.23,0,0,0,1.469-2.142,23.266,23.266,0,0,0,.007-2.595,7.847,7.847,0,0,1,1.908-5.85A21.724,21.724,0,0,0,47.3,25.384a2.381,2.381,0,0,0,.007-2.749A14.144,14.144,0,0,0,46.1,20.912a8.241,8.241,0,0,1-2.236-6.787M35.573,45.548c-.249.274-.376.4-.488.54A4.635,4.635,0,0,1,29.8,47.748c-1.062-.3-2.11-.661-3.157-1.015a4.837,4.837,0,0,0-3.176-.028c-1.176.393-2.353.794-3.552,1.108a4.467,4.467,0,0,1-4.761-1.457c-.2-.228-.414-.449-.7-.759V57.676c.341-.16.608-.276.867-.408,2.884-1.474,5.779-2.928,8.641-4.442a2.039,2.039,0,0,1,2.119.016c2.843,1.494,5.711,2.94,8.571,4.4.28.143.564.277.917.451Z" transform="translate(0 -0.001)"/><path class="c" d="M36.826,61.408a2.648,2.648,0,0,1-1.187-.32c-3.032-1.539-6.629-3.37-10.318-5.286a.577.577,0,0,0-.67,0C22.1,57.124,19.508,58.449,17,59.731l-2.444,1.248A3.253,3.253,0,0,1,13.1,61.4c-.514,0-1.711-.226-1.715-2.321,0-1.889,0-3.808,0-5.665q0-1.185,0-2.37,0-1.07,0-2.139c0-1.908-.009-3.88.02-5.823.006-.428-.106-.491-.306-.565-.834-.31-1.731-.635-2.635-.913-2.264-.7-3.5-1.416-4.28-2.482s-1.082-2.471-1.05-4.843c0-.234,0-.469.007-.7,0-.356.005-.724.013-1.088a3.891,3.891,0,0,0-.814-2.5C1.579,28.984.9,28.074.276,27.124A5.363,5.363,0,0,1,.3,20.785c.633-.942,1.314-1.857,2.015-2.79A4.186,4.186,0,0,0,3.154,15.4v-.242c0-1.319.008-2.682.132-4.029A4.566,4.566,0,0,1,6.172,7.259,29.619,29.619,0,0,1,9.76,5.98a4.7,4.7,0,0,0,2.784-2.037A30.673,30.673,0,0,1,14.409,1.4,5.206,5.206,0,0,1,18.575-.738a6.256,6.256,0,0,1,1.73.259c1.1.317,2.046.625,2.9.942A5.021,5.021,0,0,0,24.978.8,4.95,4.95,0,0,0,26.666.493,37.318,37.318,0,0,1,30.3-.594a5.2,5.2,0,0,1,1.238-.155A4.561,4.561,0,0,1,34.927.773,22.264,22.264,0,0,1,37.25,3.731a5.118,5.118,0,0,0,3.14,2.3,24.839,24.839,0,0,1,3.07,1.06A5.152,5.152,0,0,1,46.8,12.037c.035.985.037,2.061.006,3.288a4.2,4.2,0,0,0,.915,2.78c.549.709,1.118,1.487,1.791,2.449a5.944,5.944,0,0,1,1.183,3.473,6.018,6.018,0,0,1-1.229,3.452c-.545.764-1.108,1.553-1.7,2.311a4.5,4.5,0,0,0-.967,2.935,39.436,39.436,0,0,1-.132,4.121,4.588,4.588,0,0,1-2.892,3.864,33.363,33.363,0,0,1-3.227,1.157l-.313.1a4.543,4.543,0,0,0-1.523.626,4.429,4.429,0,0,0-.131,1.624V58.66c0,.062,0,.125,0,.187,0,.156,0,.318,0,.483C38.528,60.862,37.641,61.408,36.826,61.408ZM24.984,54.253a2.151,2.151,0,0,1,1,.27c3.684,1.913,7.277,3.742,10.306,5.28a1.236,1.236,0,0,0,.535.164.166.166,0,0,0,.162-.068,1.079,1.079,0,0,0,.146-.611c0-.139,0-.281,0-.431,0-.065,0-.131,0-.2V44.217a4.044,4.044,0,0,1,.411-2.477c.408-.555,1.06-.764,2.244-1.144l.314-.1a32.285,32.285,0,0,0,3.088-1.1,3.125,3.125,0,0,0,2.036-2.681,38.1,38.1,0,0,0,.125-3.968A5.886,5.886,0,0,1,46.626,28.9c.573-.733,1.127-1.509,1.662-2.26a4.16,4.16,0,0,0,.038-5.263c-.659-.942-1.215-1.7-1.75-2.393a5.664,5.664,0,0,1-1.217-3.7c.03-1.2.029-2.245-.005-3.2a3.711,3.711,0,0,0-2.433-3.656,22.988,22.988,0,0,0-2.89-1,6.565,6.565,0,0,1-3.986-2.908,20.818,20.818,0,0,0-2.172-2.766A3.114,3.114,0,0,0,31.538.692,3.759,3.759,0,0,0,30.644.8,35.872,35.872,0,0,0,27.151,1.85a6.454,6.454,0,0,1-2.173.39A6.525,6.525,0,0,1,22.7,1.813c-.82-.3-1.735-.6-2.8-.908a4.821,4.821,0,0,0-1.33-.2,3.784,3.784,0,0,0-3.043,1.6,29.283,29.283,0,0,0-1.779,2.423,6.146,6.146,0,0,1-3.59,2.636A28.2,28.2,0,0,0,6.747,8.58a3.1,3.1,0,0,0-2.026,2.682c-.118,1.283-.122,2.614-.126,3.9v.243A5.578,5.578,0,0,1,3.468,18.86c-.689.917-1.358,1.816-1.971,2.729a3.921,3.921,0,0,0-.018,4.74c.607.918,1.268,1.81,2.007,2.8a5.351,5.351,0,0,1,1.1,3.394c-.008.354-.01.717-.013,1.067,0,.237,0,.474-.007.712-.051,3.81.674,4.808,4.313,5.929.938.289,1.858.622,2.713.94A1.843,1.843,0,0,1,12.837,43.1c-.028,1.93-.024,3.9-.019,5.8q0,1.071,0,2.142,0,1.185,0,2.371c0,1.856,0,3.774,0,5.661a1.636,1.636,0,0,0,.142.823c.027.044.037.06.132.06a1.9,1.9,0,0,0,.8-.263l2.444-1.249c2.509-1.281,5.1-2.605,7.644-3.925A2.143,2.143,0,0,1,24.984,54.253Zm11.28,4.568-1.038-.509-.327-.16c-.209-.1-.406-.2-.6-.3L32.08,56.724c-2.088-1.064-4.248-2.164-6.36-3.274a1.612,1.612,0,0,0-.747-.223,1.492,1.492,0,0,0-.7.205c-2.148,1.136-4.348,2.256-6.476,3.339q-1.088.553-2.174,1.108c-.185.095-.374.181-.573.273l-.315.146-1.027.482V43.726l1.25,1.353.267.287c.162.174.3.325.442.481a3.731,3.731,0,0,0,2.878,1.4,4.613,4.613,0,0,0,1.162-.159c1.077-.282,2.164-.645,3.216-1l.291-.1a5.54,5.54,0,0,1,1.758-.291,5.868,5.868,0,0,1,1.877.321l.137.046c.977.33,1.988.672,2.988.958a5.121,5.121,0,0,0,1.4.213,3.868,3.868,0,0,0,3.118-1.631c.087-.108.173-.2.291-.329.062-.067.135-.146.224-.244l1.254-1.384Zm-11.29-7.035a3.018,3.018,0,0,1,1.417.388c2.1,1.106,4.259,2.2,6.343,3.266l2.089,1.065V47.349a5.055,5.055,0,0,1-3.447,1.33,6.557,6.557,0,0,1-1.8-.268c-1.032-.3-2.059-.643-3.052-.978l-.137-.046a4.371,4.371,0,0,0-1.416-.245,4.047,4.047,0,0,0-1.3.217l-.29.1c-1.074.359-2.185.731-3.308,1.025a6.052,6.052,0,0,1-1.527.206,4.992,4.992,0,0,1-3.4-1.322V56.5l2-1.017c2.123-1.08,4.318-2.2,6.456-3.328A2.9,2.9,0,0,1,24.974,51.786ZM31.4,46.414h0a5.122,5.122,0,0,1-1.439-.245c-.855-.25-1.7-.543-2.525-.825l-.352-.121a6.456,6.456,0,0,0-2.1-.361,6.6,6.6,0,0,0-2.2.39c-.927.327-1.92.654-2.949.972a4.006,4.006,0,0,1-1.177.189A3.2,3.2,0,0,1,16.036,45l-.279-.376c-.454-.611-.924-1.243-1.35-1.9a6.624,6.624,0,0,0-4.063-2.934c-.822-.212-1.627-.491-2.405-.761l-.2-.068A3.241,3.241,0,0,1,5.4,35.634c.005-.513.005-1.037.006-1.543,0-.531,0-1.08.006-1.622a5.986,5.986,0,0,0-1.232-3.795C3.353,27.567,2.7,26.66,2.128,25.82a3.131,3.131,0,0,1,0-3.694,28.932,28.932,0,0,1,1.707-2.355,6.744,6.744,0,0,0,1.592-4.837c-.035-.688-.027-1.378-.019-2.045,0-.224.005-.448.006-.671A3.4,3.4,0,0,1,6,10.23,3.326,3.326,0,0,1,7.686,9.023c1.052-.361,2.172-.727,3.329-1.086a5.73,5.73,0,0,0,3.079-2.28q.21-.3.419-.6c.4-.571.808-1.161,1.234-1.732a3.461,3.461,0,0,1,2.819-1.778,5.674,5.674,0,0,1,1.672.309c.847.261,1.613.52,2.341.791a6.852,6.852,0,0,0,2.394.447,7.038,7.038,0,0,0,2.417-.447c1.1-.4,2.207-.734,3.052-.98a3.342,3.342,0,0,1,.932-.138,2.835,2.835,0,0,1,2.24,1.1,29.732,29.732,0,0,1,1.88,2.532,6.7,6.7,0,0,0,4.04,2.975c.706.183,1.4.421,2.062.65.2.07.4.139.606.207a3.223,3.223,0,0,1,2.349,3.323c0,.408,0,.824,0,1.226q0,.277,0,.553v.049l-.007.049a7.534,7.534,0,0,0,2.066,6.215,13.343,13.343,0,0,1,1.173,1.652l.1.158a3.109,3.109,0,0,1-.01,3.528,22.425,22.425,0,0,1-1.6,2.25,7.126,7.126,0,0,0-1.74,5.334,23.763,23.763,0,0,1,0,2.659v.016A2.941,2.941,0,0,1,42.6,38.79a28.55,28.55,0,0,1-2.99,1,6.661,6.661,0,0,0-4.059,2.944c-.434.677-.923,1.364-1.493,2.1A3.3,3.3,0,0,1,31.4,46.414Zm-6.413-2.993a7.893,7.893,0,0,1,2.565.439l.354.122c.805.277,1.638.564,2.461.8a3.83,3.83,0,0,0,1.034.186h0c.471,0,.852-.162,1.516-1.019.544-.7,1.008-1.356,1.42-2a8.148,8.148,0,0,1,4.9-3.557,27.164,27.164,0,0,0,2.84-.953,1.517,1.517,0,0,0,1.01-1.5v-.016a22.682,22.682,0,0,0,.008-2.5,8.614,8.614,0,0,1,2.075-6.366,21.315,21.315,0,0,0,1.5-2.107,1.657,1.657,0,0,0,0-1.969l-.1-.16a12.082,12.082,0,0,0-1.042-1.478,8.9,8.9,0,0,1-2.414-7.309q0-.251,0-.5c0-.406,0-.825,0-1.24a1.806,1.806,0,0,0-1.368-1.946c-.206-.069-.411-.14-.616-.211-.67-.231-1.3-.449-1.955-.618A8.081,8.081,0,0,1,34.29,5.951,28.312,28.312,0,0,0,32.5,3.541a1.4,1.4,0,0,0-1.126-.573,1.9,1.9,0,0,0-.529.081c-.823.24-1.9.564-2.96.95a8.473,8.473,0,0,1-2.912.534A8.287,8.287,0,0,1,22.077,4c-.7-.261-1.443-.512-2.263-.765a4.435,4.435,0,0,0-1.247-.245c-.511,0-.908.185-1.665,1.2-.412.552-.816,1.132-1.206,1.693q-.211.3-.423.606a7.216,7.216,0,0,1-3.83,2.828c-1.144.356-2.25.717-3.289,1.073a1.735,1.735,0,0,0-1.3,1.839c0,.227,0,.454-.006.682-.008.645-.015,1.312.017,1.955a8.232,8.232,0,0,1-1.92,5.827c-.595.721-1.127,1.5-1.62,2.239a1.706,1.706,0,0,0-.006,2.082c.558.821,1.2,1.711,2.018,2.8a7.476,7.476,0,0,1,1.521,4.676c-.006.535-.006,1.08-.006,1.607,0,.51,0,1.036-.006,1.556A1.821,1.821,0,0,0,8.215,37.6l.2.068c.751.26,1.528.53,2.294.728a8.111,8.111,0,0,1,4.911,3.545c.4.619.857,1.232,1.3,1.825l.282.38a1.773,1.773,0,0,0,1.471.824,2.573,2.573,0,0,0,.752-.125c1.012-.312,1.986-.633,2.9-.954A8.039,8.039,0,0,1,24.988,43.422Z" transform="translate(0.03 0.029)"/><path class="c" d="M73.132,52.348a16.182,16.182,0,1,1-16-16.181,16.166,16.166,0,0,1,16,16.181M56.921,66.233a13.9,13.9,0,1,0-13.878-13.9,13.921,13.921,0,0,0,13.878,13.9" transform="translate(-31.943 -28.339)"/><path class="c" d="M57.005,69.188h-.156a17.069,17.069,0,0,1-6.654-1.4,16.889,16.889,0,0,1,6.763-32.371h.154a16.543,16.543,0,0,1,6.5,1.391,17.171,17.171,0,0,1,8.919,9.021,16.308,16.308,0,0,1,1.289,6.495,16.988,16.988,0,0,1-4.968,11.939A16.629,16.629,0,0,1,57.005,69.188Zm-.048-32.33a15.445,15.445,0,1,0-.1,30.889,15.2,15.2,0,0,0,10.973-4.5,15.556,15.556,0,0,0,4.547-10.933,14.875,14.875,0,0,0-1.176-5.924,15.73,15.73,0,0,0-8.167-8.26,15.11,15.11,0,0,0-5.94-1.271ZM57,66.924h-.115a14.619,14.619,0,0,1,.094-29.238h.181a14.234,14.234,0,0,1,5.622,1.225,14.839,14.839,0,0,1,7.672,7.873,14.378,14.378,0,0,1,1.1,5.666A14.632,14.632,0,0,1,57,66.924Zm-.02-27.8A13.178,13.178,0,1,0,56.9,65.483,12.981,12.981,0,0,0,66.2,61.657a13.122,13.122,0,0,0,3.906-9.22,12.945,12.945,0,0,0-.986-5.1A13.4,13.4,0,0,0,62.2,40.229a12.8,12.8,0,0,0-5.056-1.1Z" transform="translate(-31.914 -28.309)"/></g></svg>