<svg xmlns="http://www.w3.org/2000/svg" width="50" height="43.22" viewBox="0 0 50 43.22"><defs><style>.a{fill:#7f8685;}</style></defs><g transform="translate(2 2)"><path class="a" d="M8812.591,1089h36.815a6.6,6.6,0,0,1,6.594,6.592v22.244a6.6,6.6,0,0,1-6.594,6.592h-21.732l-7.187,7.187a2.065,2.065,0,0,1-3.525-1.46v-5.727h-4.37a6.6,6.6,0,0,1-6.591-6.592v-22.244A6.6,6.6,0,0,1,8812.591,1089Zm36.815,31.3a2.465,2.465,0,0,0,2.463-2.461v-22.244a2.465,2.465,0,0,0-2.463-2.461h-36.815a2.464,2.464,0,0,0-2.461,2.461v22.244a2.464,2.464,0,0,0,2.461,2.461h6.436a2.065,2.065,0,0,1,2.065,2.065v2.806l4.267-4.266a2.063,2.063,0,0,1,1.46-.6Z" transform="translate(-8808 -1091)"/><g transform="translate(8.075 13.291)"><circle class="a" cx="1.974" cy="1.974" r="1.974" transform="translate(0.5 0.5)"/><path class="a" d="M1.974-.5A2.474,2.474,0,1,1-.5,1.974,2.477,2.477,0,0,1,1.974-.5Zm0,3.948A1.474,1.474,0,1,0,.5,1.974,1.476,1.476,0,0,0,1.974,3.448Z" transform="translate(0.5 0.5)"/><circle class="a" cx="1.974" cy="1.974" r="1.974" transform="translate(12.419 0.573)"/><path class="a" d="M1.974-.5A2.474,2.474,0,1,1-.5,1.974,2.477,2.477,0,0,1,1.974-.5Zm0,3.948A1.474,1.474,0,1,0,.5,1.974,1.476,1.476,0,0,0,1.974,3.448Z" transform="translate(12.419 0.573)"/><circle class="a" cx="1.974" cy="1.974" r="1.974" transform="translate(24.409 0.573)"/><path class="a" d="M1.974-.5A2.474,2.474,0,1,1-.5,1.974,2.477,2.477,0,0,1,1.974-.5Zm0,3.948A1.474,1.474,0,1,0,.5,1.974,1.476,1.476,0,0,0,1.974,3.448Z" transform="translate(24.409 0.573)"/></g></g></svg>