<svg xmlns="http://www.w3.org/2000/svg" width="82.689" height="51.67" viewBox="0 0 82.689 51.67"><defs><style>.a{fill:#fff;}</style></defs><g transform="translate(-9376.494 -9963.167)"><path class="a" d="M9457.032,9983.427c-8.9-9.795-23.738-20.26-38.668-20.26l-.5,0-.557,0c-14.932,0-29.76,10.465-38.664,20.264a8.291,8.291,0,0,0,.008,11.135c8.9,9.8,23.725,20.271,38.658,20.271l.5,0,.473,0c15,0,29.859-10.473,38.766-20.277A8.282,8.282,0,0,0,9457.032,9983.427Zm-39.2,25.469a19.9,19.9,0,1,1,19.9-19.895A19.92,19.92,0,0,1,9417.837,10008.9Z" transform="translate(-0.002)"/><path class="a" d="M9399.808,9992.607a12.08,12.08,0,1,1,12.08-12.08A12.1,12.1,0,0,1,9399.808,9992.607Z" transform="translate(18.029 8.473)"/></g></svg>