<svg xmlns="http://www.w3.org/2000/svg" width="50.507" height="50.762" viewBox="0 0 50.507 50.762"><defs><style>.a{fill:#d09b2c;}</style></defs><g transform="matrix(1, 0.017, -0.017, 1, 2.483, 1.933)"><path class="a" d="M10624.667,3034.858a2.417,2.417,0,0,1-.984-.21l-20.362-9.042a2.421,2.421,0,0,1,.19-4.5l45.14-15.667a2.424,2.424,0,0,1,2.517,4l-24.777,24.709A2.441,2.441,0,0,1,10624.667,3034.858Zm-13.762-11.189,13.227,5.874,16.1-16.052Z" transform="translate(-10603.88 -3007.2)"/><path class="a" d="M10630.9,3055.215a2.425,2.425,0,0,1-2.214-1.441l-9.04-20.361a2.435,2.435,0,0,1,.5-2.707l24.708-24.78a2.425,2.425,0,0,1,4,2.517l-15.669,45.141a2.42,2.42,0,0,1-2.186,1.629Zm-6.148-22.253,5.871,13.227,10.18-29.325Z" transform="translate(-10601.093 -3007.213)"/></g></svg>