<svg xmlns="http://www.w3.org/2000/svg" width="50" height="50" viewBox="0 0 50 50"><defs><style>.a{fill:#fff;}</style></defs><g transform="translate(-9333.75 -892.5)"><path class="a" d="M0,47a2.853,2.853,0,0,1-3-2.679V-.321A2.853,2.853,0,0,1,0-3,2.853,2.853,0,0,1,3-.321V44.321A2.853,2.853,0,0,1,0,47Z" transform="translate(9358.75 895.5)"/><path class="a" d="M44.321,3H-.321A2.853,2.853,0,0,1-3,0,2.853,2.853,0,0,1-.321-3H44.321A2.853,2.853,0,0,1,47,0,2.853,2.853,0,0,1,44.321,3Z" transform="translate(9336.75 917.5)"/></g></svg>