<svg xmlns="http://www.w3.org/2000/svg" width="49.999" height="44.891" viewBox="0 0 49.999 44.891"><defs><style>.a{fill:#7f8685;}</style></defs><path class="a" d="M8848.425,919.752h-34.857a7.5,7.5,0,0,1-6.547-3.745,7.35,7.35,0,0,1,0-7.489l17.427-29.912a7.595,7.595,0,0,1,13.093,0l17.43,29.912a7.358,7.358,0,0,1,0,7.49A7.5,7.5,0,0,1,8848.425,919.752ZM8831,878.953a3.4,3.4,0,0,0-2.971,1.7L8810.6,910.564a3.334,3.334,0,0,0,0,3.4,3.4,3.4,0,0,0,2.97,1.7h34.857a3.4,3.4,0,0,0,2.969-1.7,3.337,3.337,0,0,0,0-3.4l-17.43-29.912A3.4,3.4,0,0,0,8831,878.953Z" transform="translate(-8805.996 -874.861)"/></svg>