<svg xmlns="http://www.w3.org/2000/svg" xmlns:xlink="http://www.w3.org/1999/xlink" width="50" height="44.188" viewBox="0 0 50 44.188"><defs><style>.a{fill:#7f8685;}.b{clip-path:url(#a);}</style><clipPath id="a"><rect class="a" width="50" height="44.188"/></clipPath></defs><g class="b"><path class="a" d="M24.995,44.186q-9.322,0-18.644,0A6.157,6.157,0,0,1,0,37.7Q0,25.486,0,13.274A6.157,6.157,0,0,1,6.366,6.8c2.135,0,4.271-.009,6.406.009a.531.531,0,0,0,.625-.448c.226-.778.485-1.549.762-2.311A6.017,6.017,0,0,1,19.8.013Q25-.014,30.212.013a6.007,6.007,0,0,1,5.632,4.049c.265.729.513,1.466.726,2.211a.619.619,0,0,0,.718.543c2.152-.029,4.305-.016,6.458-.012A6.144,6.144,0,0,1,50,13.176Q50,25.5,50,37.814a6.146,6.146,0,0,1-6.254,6.371q-9.374.006-18.748,0m.009-3.4q9.32,0,18.64,0a2.8,2.8,0,0,0,3.021-3.062q0-12.236,0-24.472a2.794,2.794,0,0,0-2.98-3.05q-3.957,0-7.914,0a1.7,1.7,0,0,1-1.86-1.361c-.374-1.121-.732-2.247-1.1-3.368a2.753,2.753,0,0,0-2.815-2.066q-5,0-10,0a2.749,2.749,0,0,0-2.807,2.076c-.355,1.071-.7,2.145-1.052,3.218a1.777,1.777,0,0,1-2.023,1.5H6.408a2.811,2.811,0,0,0-3.074,3.113q0,12.157,0,24.313a2.82,2.82,0,0,0,3.082,3.159H25" transform="translate(0 0.001)"/><path class="a" d="M90.022,96.848a12.5,12.5,0,1,1,12.487,12.729A12.631,12.631,0,0,1,90.022,96.848m12.5-9.358a9.346,9.346,0,1,0,9.161,9.36,9.26,9.26,0,0,0-9.161-9.36" transform="translate(-77.522 -72.188)"/><path class="a" d="M289.761,99.5a1.7,1.7,0,1,1,1.641-1.709,1.7,1.7,0,0,1-1.641,1.709" transform="translate(-248.072 -82.5)"/></g></svg>