<svg xmlns="http://www.w3.org/2000/svg" width="50" height="51.043" viewBox="0 0 50 51.043"><defs><style>.a{fill:#7f8685;}</style></defs><path class="a" d="M9650.607,2636.261h29.4a10.306,10.306,0,0,1,10.3,10.315V2668.3a10.3,10.3,0,0,1-10.3,10.313h-17.794l-8.137,8.15a1.851,1.851,0,0,1-3.161-1.311v-6.839h-.312a10.3,10.3,0,0,1-10.3-10.313v-21.722a10.3,10.3,0,0,1,10.3-10.315Zm29.4,38.64a6.607,6.607,0,0,0,6.595-6.6v-21.722a6.608,6.608,0,0,0-6.595-6.605h-29.4a6.608,6.608,0,0,0-6.595,6.605V2668.3a6.607,6.607,0,0,0,6.595,6.6h2.164a1.853,1.853,0,0,1,1.852,1.854v4.216l5.518-5.527a1.849,1.849,0,0,1,1.31-.543Z" transform="translate(-9640.31 -2636.261)"/></svg>