<svg xmlns="http://www.w3.org/2000/svg" width="50.001" height="50" viewBox="0 0 50.001 50"><defs><style>.a{fill:#7f8685;}</style></defs><g transform="translate(5088 3817.176)"><path class="a" d="M8853.677,795.5a1.725,1.725,0,0,1-1.241-.537L8830.5,772.509l-21.933,22.456a1.711,1.711,0,0,1-2.576-.1,2.142,2.142,0,0,1,.09-2.827l23.177-23.728a1.706,1.706,0,0,1,2.485,0l23.18,23.729a2.141,2.141,0,0,1,.091,2.827A1.747,1.747,0,0,1,8853.677,795.5Z" transform="translate(-13893.499 -4584.95)"/><path class="a" d="M8846.875,808.32h-12.432a1.77,1.77,0,0,1-1.784-1.755V793.057h-8.332v13.508a1.77,1.77,0,0,1-1.784,1.755h-12.43a1.77,1.77,0,0,1-1.784-1.755v-26.1a1.784,1.784,0,0,1,3.568,0v24.341h8.861V791.3a1.77,1.77,0,0,1,1.784-1.755h11.9a1.769,1.769,0,0,1,1.784,1.755v13.508h8.863v-24a1.784,1.784,0,0,1,3.568,0v25.754A1.77,1.77,0,0,1,8846.875,808.32Z" transform="translate(-13891.494 -4575.496)"/></g></svg>