<svg xmlns="http://www.w3.org/2000/svg" width="50" height="50.018" viewBox="0 0 50 50.018"><defs><style>.a{fill:#7f8685;}</style></defs><g transform="translate(-9282.882 -2634.294)"><path class="a" d="M9308.4,2634.293a6.927,6.927,0,0,1,4.1,1.314,6.418,6.418,0,0,1,2.02,2.575,10.078,10.078,0,0,1,.771,4.1v7.109h15.735a1.852,1.852,0,0,1,1.852,1.852v23.335a9.6,9.6,0,0,1-9.592,9.588h-38.556a1.852,1.852,0,0,1-1.853-1.851v-31.072a1.852,1.852,0,0,1,1.853-1.852h9.8l7.37-11.721a7.191,7.191,0,0,1,5.994-3.362C9308.012,2634.3,9308.182,2634.293,9308.4,2634.293Zm20.779,18.806H9313.44a1.852,1.852,0,0,1-1.853-1.851v-8.961c0-1.815-.439-3.065-1.308-3.716a3.265,3.265,0,0,0-1.884-.575c-.094,0-.159,0-.184.006a1.3,1.3,0,0,1-.218.013,3.472,3.472,0,0,0-2.954,1.631l-7.913,12.587a1.852,1.852,0,0,1-1.568.866h-8.977v27.369h36.7a5.894,5.894,0,0,0,5.889-5.885Z" transform="translate(0.003 0)"/><path class="a" d="M0,32.211a1.925,1.925,0,0,1-2-1.839V-.161A1.925,1.925,0,0,1,0-2,1.925,1.925,0,0,1,2-.161V30.372A1.925,1.925,0,0,1,0,32.211Z" transform="translate(9295.594 2652.101)"/></g></svg>