<svg xmlns="http://www.w3.org/2000/svg" width="50" height="50.001" viewBox="0 0 50 50.001"><defs><style>.a{fill:#7f8685;}</style></defs><g transform="translate(1.75 1.75)"><path class="a" d="M8837.934,1026.251a7.766,7.766,0,0,1-8.006-7.482V978.076a1.752,1.752,0,1,1,3.5,0v40.693a3.53,3.53,0,0,0,1.233,2.614,5.008,5.008,0,0,0,6.542,0,3.529,3.529,0,0,0,1.234-2.614V991.817a1.752,1.752,0,1,1,3.5,0v26.952A7.765,7.765,0,0,1,8837.934,1026.251Z" transform="translate(-8797.688 -978)"/><path class="a" d="M8848.956,1026.251H8815.1a7.9,7.9,0,0,1-7.849-7.935v-40.24a1.832,1.832,0,0,1,1.838-1.826h34.48a1.826,1.826,0,1,1,0,3.652h-32.643v38.414a4.233,4.233,0,0,0,4.173,4.283h33.855a1.826,1.826,0,1,1,0,3.652Z" transform="translate(-8809.002 -978)"/><path class="a" d="M0,38.539a1.8,1.8,0,0,1-1.75-1.845V.1A1.8,1.8,0,0,1,0-1.75,1.8,1.8,0,0,1,1.75.1v36.6A1.8,1.8,0,0,1,0,38.539Z" transform="translate(40.044 3.659)"/><path class="a" d="M28.652,1.75H0A1.75,1.75,0,0,1-1.75,0,1.75,1.75,0,0,1,0-1.75H28.652A1.75,1.75,0,0,1,30.4,0,1.75,1.75,0,0,1,28.652,1.75Z" transform="translate(0 13.181)"/><path class="a" d="M28.652,1.75H0A1.75,1.75,0,0,1-1.75,0,1.75,1.75,0,0,1,0-1.75H28.652A1.75,1.75,0,0,1,30.4,0,1.75,1.75,0,0,1,28.652,1.75Z" transform="translate(0 23.433)"/><path class="a" d="M28.652,1.75H0A1.75,1.75,0,0,1-1.75,0,1.75,1.75,0,0,1,0-1.75H28.652A1.75,1.75,0,0,1,30.4,0,1.75,1.75,0,0,1,28.652,1.75Z" transform="translate(0 33.686)"/></g></svg>