<svg xmlns="http://www.w3.org/2000/svg" width="50" height="45.001" viewBox="0 0 50 45.001"><defs><style>.a{fill:#7f8685;}</style></defs><g transform="translate(2 2)"><path class="a" d="M45.935,2H.065A2.033,2.033,0,0,1-2,0,2.033,2.033,0,0,1,.065-2H45.935A2.033,2.033,0,0,1,48,0,2.033,2.033,0,0,1,45.935,2Z" transform="translate(0 0)"/><path class="a" d="M45.935,2H.065A2.033,2.033,0,0,1-2,0,2.033,2.033,0,0,1,.065-2H45.935A2.033,2.033,0,0,1,48,0,2.033,2.033,0,0,1,45.935,2Z" transform="translate(0 20.5)"/><path class="a" d="M23.917,2H0A2,2,0,0,1-2,0,2,2,0,0,1,0-2H23.917a2,2,0,0,1,2,2A2,2,0,0,1,23.917,2Z" transform="translate(0 41.001)"/></g></svg>