<svg xmlns="http://www.w3.org/2000/svg" width="55" height="63.829" viewBox="0 0 55 63.829"><defs><style>.a{fill:#7f8685;}</style></defs><path class="a" d="M10113,2939.328a2.5,2.5,0,0,1-2.5-2.5v-53.439a7.9,7.9,0,0,1,7.889-7.889h39.225a7.9,7.9,0,0,1,7.887,7.889v53.439a2.5,2.5,0,0,1-4.187,1.845l-23.638-21.61-22.964,21.586A2.5,2.5,0,0,1,10113,2939.328Zm24.653-28.174a2.492,2.492,0,0,1,1.687.655l21.161,19.346v-47.766a2.891,2.891,0,0,0-2.887-2.889h-39.225a2.892,2.892,0,0,0-2.889,2.889v47.658l20.44-19.214A2.492,2.492,0,0,1,10137.652,2911.154Z" transform="translate(-10110.5 -2875.5)"/></svg>