<svg xmlns="http://www.w3.org/2000/svg" width="50.001" height="43.958" viewBox="0 0 50.001 43.958"><defs><style>.a{fill:#7f8685;}</style></defs><path class="a" d="M10143.777,2637.522a1.862,1.862,0,0,1,1.268.5l20.37,18.927a1.82,1.82,0,0,1,0,2.673l-20.37,18.928a1.869,1.869,0,0,1-2,.346,1.834,1.834,0,0,1-1.115-1.682v-8.55a42.065,42.065,0,0,0-11.522,2.165c-5.553,1.987-9.191,5.17-10.817,9.464a1.86,1.86,0,0,1-2.231,1.122,1.831,1.831,0,0,1-1.323-2.1,54.924,54.924,0,0,1,5.4-14.573,35.868,35.868,0,0,1,8.383-10.515,24.246,24.246,0,0,1,12.111-5.468v-9.4a1.833,1.833,0,0,1,1.115-1.682A1.872,1.872,0,0,1,10143.777,2637.522Zm17.665,20.761-15.813-14.693v6.8a1.841,1.841,0,0,1-1.71,1.828,20.531,20.531,0,0,0-11.728,4.813,32.224,32.224,0,0,0-7.5,9.45c-.782,1.429-1.458,2.853-2.036,4.21a26.527,26.527,0,0,1,6.492-3.314,47.72,47.72,0,0,1,14.592-2.457h.041a1.862,1.862,0,0,1,1.295.523,1.823,1.823,0,0,1,.557,1.31v6.221Z" transform="translate(-10115.999 -2637.522)"/></svg>